<?xml version="1.0" encoding="UTF-8" standalone="no"?>
<!DOCTYPE svg PUBLIC "-//W3C//DTD SVG 1.1//EN" "http://www.w3.org/Graphics/SVG/1.1/DTD/svg11.dtd">
<svg version="1.1" xmlns="http://www.w3.org/2000/svg" xmlns:xlink="http://www.w3.org/1999/xlink" preserveAspectRatio="xMidYMid meet" viewBox="0 0 640 640" width="640" height="640"><defs><path d="M123.73 153.6C123.73 143.36 123.73 61.44 123.73 51.2C123.73 46.49 119.91 42.67 115.2 42.67C110.49 42.67 106.67 46.49 106.67 51.2C106.67 61.44 106.67 143.36 106.67 153.6C106.67 158.31 110.49 162.13 115.2 162.13C119.91 162.13 123.73 158.31 123.73 153.6Z" id="blFuQZnRj"></path><path d="M298.93 51.2C298.93 61.44 298.93 143.36 298.93 153.6C298.93 158.31 302.75 162.13 307.47 162.13C312.18 162.13 316 158.31 316 153.6C316 143.36 316 61.44 316 51.2C316 46.49 312.18 42.67 307.47 42.67C302.75 42.67 298.93 46.49 298.93 51.2Z" id="a1QXkupBrC"></path><path d="M244.93 128.53C244.93 123.31 244.93 81.49 244.93 76.27C244.93 57.74 229.86 42.67 211.33 42.67C192.81 42.67 177.73 57.74 177.73 76.27C177.73 81.49 177.73 123.31 177.73 128.53C177.73 147.06 192.81 162.13 211.33 162.13C229.86 162.13 244.93 147.06 244.93 128.53ZM211.33 59.73C220.45 59.73 227.87 67.15 227.87 76.27C227.87 81.49 227.87 123.31 227.87 128.53C227.87 137.65 220.45 145.07 211.33 145.07C202.22 145.07 194.8 137.65 194.8 128.53C194.8 125.05 194.8 107.63 194.8 76.27C199.74 65.24 205.26 59.73 211.33 59.73Z" id="fWHpW4jod"></path><path d="M466.13 76.27C466.13 81.49 466.13 123.31 466.13 128.53C466.13 147.06 481.21 162.13 499.73 162.13C518.26 162.13 533.33 147.06 533.33 128.53C533.33 123.31 533.33 81.49 533.33 76.27C533.33 57.74 518.26 42.67 499.73 42.67C481.21 42.67 466.13 57.74 466.13 76.27ZM499.73 145.07C490.62 145.07 483.2 137.65 483.2 128.53C483.2 123.31 483.2 81.49 483.2 76.27C483.2 67.15 490.62 59.73 499.73 59.73C508.85 59.73 516.27 67.15 516.27 76.27C516.27 79.75 516.27 97.17 516.27 128.53C511.32 139.56 505.81 145.07 499.73 145.07Z" id="h5WCm4jrag"></path><path d="M437.2 128.53C437.2 123.31 437.2 81.49 437.2 76.27C437.2 57.74 422.12 42.67 403.6 42.67C385.08 42.67 370 57.74 370 76.27C370 81.49 370 123.31 370 128.53C370 147.06 385.08 162.13 403.6 162.13C422.12 162.13 437.2 147.06 437.2 128.53ZM403.6 59.73C412.72 59.73 420.13 67.15 420.13 76.27C420.13 81.49 420.13 123.31 420.13 128.53C420.13 137.65 412.72 145.07 403.6 145.07C394.48 145.07 387.07 137.65 387.07 128.53C387.07 125.05 387.07 107.63 387.07 76.27C392.01 65.24 397.52 59.73 403.6 59.73Z" id="b18zdINyyI"></path><path d="M516.27 204.8C516.27 215.04 516.27 296.96 516.27 307.2C516.27 311.91 520.09 315.73 524.8 315.73C529.51 315.73 533.33 311.91 533.33 307.2C533.33 296.96 533.33 215.04 533.33 204.8C533.33 200.09 529.51 196.27 524.8 196.27C520.09 196.27 516.27 200.09 516.27 204.8Z" id="c3ltOYV98A"></path><path d="M324 204.8C324 215.04 324 296.96 324 307.2C324 311.91 327.82 315.73 332.53 315.73C337.25 315.73 341.07 311.91 341.07 307.2C341.07 296.96 341.07 215.04 341.07 204.8C341.07 200.09 337.25 196.27 332.53 196.27C327.82 196.27 324 200.09 324 204.8Z" id="l3X5EnbAjd"></path><path d="M395.07 229.87C395.07 235.09 395.07 276.91 395.07 282.13C395.07 300.66 410.14 315.73 428.67 315.73C447.19 315.73 462.27 300.66 462.27 282.13C462.27 276.91 462.27 235.09 462.27 229.87C462.27 211.34 447.19 196.27 428.67 196.27C410.14 196.27 395.07 211.34 395.07 229.87ZM428.67 298.67C419.55 298.67 412.13 291.25 412.13 282.13C412.13 276.91 412.13 235.09 412.13 229.87C412.13 220.75 419.55 213.33 428.67 213.33C437.78 213.33 445.2 220.75 445.2 229.87C445.2 233.35 445.2 250.77 445.2 282.13C440.26 293.16 434.74 298.67 428.67 298.67Z" id="c3cha3VK2g"></path><path d="M106.67 229.87C106.67 235.09 106.67 276.91 106.67 282.13C106.67 300.66 121.74 315.73 140.27 315.73C158.79 315.73 173.87 300.66 173.87 282.13C173.87 276.91 173.87 235.09 173.87 229.87C173.87 211.34 158.79 196.27 140.27 196.27C121.74 196.27 106.67 211.34 106.67 229.87ZM140.27 298.67C131.15 298.67 123.73 291.25 123.73 282.13C123.73 276.91 123.73 235.09 123.73 229.87C123.73 220.75 131.15 213.33 140.27 213.33C149.38 213.33 156.8 220.75 156.8 229.87C156.8 233.35 156.8 250.77 156.8 282.13C151.86 293.16 146.34 298.67 140.27 298.67Z" id="b4ATFZgq9B"></path><path d="M202.8 229.87C202.8 235.09 202.8 276.91 202.8 282.13C202.8 300.66 217.88 315.73 236.4 315.73C254.92 315.73 270 300.66 270 282.13C270 276.91 270 235.09 270 229.87C270 211.34 254.92 196.27 236.4 196.27C217.88 196.27 202.8 211.34 202.8 229.87ZM236.4 298.67C227.28 298.67 219.87 291.25 219.87 282.13C219.87 276.91 219.87 235.09 219.87 229.87C219.87 220.75 227.28 213.33 236.4 213.33C245.52 213.33 252.93 220.75 252.93 229.87C252.93 233.35 252.93 250.77 252.93 282.13C247.99 293.16 242.48 298.67 236.4 298.67Z" id="aapGQ41qV"></path><path d="M106.67 358.4C106.67 368.64 106.67 450.56 106.67 460.8C106.67 465.51 110.49 469.33 115.2 469.33C119.91 469.33 123.73 465.51 123.73 460.8C123.73 450.56 123.73 368.64 123.73 358.4C123.73 353.69 119.91 349.87 115.2 349.87C110.49 349.87 106.67 353.69 106.67 358.4Z" id="a1XIF7qwv1"></path><path d="M298.93 358.4C298.93 368.64 298.93 450.56 298.93 460.8C298.93 465.51 302.75 469.33 307.47 469.33C312.18 469.33 316 465.51 316 460.8C316 450.56 316 368.64 316 358.4C316 353.69 312.18 349.87 307.47 349.87C302.75 349.87 298.93 353.69 298.93 358.4Z" id="f7Qy2xTTi"></path><path d="M177.73 383.47C177.73 388.69 177.73 430.51 177.73 435.73C177.73 454.26 192.81 469.33 211.33 469.33C229.86 469.33 244.93 454.26 244.93 435.73C244.93 430.51 244.93 388.69 244.93 383.47C244.93 364.94 229.86 349.87 211.33 349.87C192.81 349.87 177.73 364.94 177.73 383.47ZM211.33 452.27C202.22 452.27 194.8 444.85 194.8 435.73C194.8 430.51 194.8 388.69 194.8 383.47C194.8 374.35 202.22 366.93 211.33 366.93C220.45 366.93 227.87 374.35 227.87 383.47C227.87 386.95 227.87 404.37 227.87 435.73C222.92 446.76 217.41 452.27 211.33 452.27Z" id="fTMJm6R8T"></path><path d="M466.13 383.47C466.13 388.69 466.13 430.51 466.13 435.73C466.13 454.26 481.21 469.33 499.73 469.33C518.26 469.33 533.33 454.26 533.33 435.73C533.33 430.51 533.33 388.69 533.33 383.47C533.33 364.94 518.26 349.87 499.73 349.87C481.21 349.87 466.13 364.94 466.13 383.47ZM499.73 452.27C490.62 452.27 483.2 444.85 483.2 435.73C483.2 430.51 483.2 388.69 483.2 383.47C483.2 374.35 490.62 366.93 499.73 366.93C508.85 366.93 516.27 374.35 516.27 383.47C516.27 386.95 516.27 404.37 516.27 435.73C511.32 446.76 505.81 452.27 499.73 452.27Z" id="aRqJ5zLSJ"></path><path d="M370 383.47C370 388.69 370 430.51 370 435.73C370 454.26 385.08 469.33 403.6 469.33C422.12 469.33 437.2 454.26 437.2 435.73C437.2 430.51 437.2 388.69 437.2 383.47C437.2 364.94 422.12 349.87 403.6 349.87C385.08 349.87 370 364.94 370 383.47ZM403.6 452.27C394.48 452.27 387.07 444.85 387.07 435.73C387.07 430.51 387.07 388.69 387.07 383.47C387.07 374.35 394.48 366.93 403.6 366.93C412.72 366.93 420.13 374.35 420.13 383.47C420.13 386.95 420.13 404.37 420.13 435.73C415.19 446.76 409.68 452.27 403.6 452.27Z" id="afQdgmap"></path></defs><g><g><g><use xlink:href="#blFuQZnRj" opacity="1" fill="#000000" fill-opacity="1"></use><g><use xlink:href="#blFuQZnRj" opacity="1" fill-opacity="0" stroke="#000000" stroke-width="1" stroke-opacity="0"></use></g></g><g><use xlink:href="#a1QXkupBrC" opacity="1" fill="#000000" fill-opacity="1"></use><g><use xlink:href="#a1QXkupBrC" opacity="1" fill-opacity="0" stroke="#000000" stroke-width="1" stroke-opacity="0"></use></g></g><g><use xlink:href="#fWHpW4jod" opacity="1" fill="#000000" fill-opacity="1"></use><g><use xlink:href="#fWHpW4jod" opacity="1" fill-opacity="0" stroke="#000000" stroke-width="1" stroke-opacity="0"></use></g></g><g><use xlink:href="#h5WCm4jrag" opacity="1" fill="#000000" fill-opacity="1"></use><g><use xlink:href="#h5WCm4jrag" opacity="1" fill-opacity="0" stroke="#000000" stroke-width="1" stroke-opacity="0"></use></g></g><g><use xlink:href="#b18zdINyyI" opacity="1" fill="#000000" fill-opacity="1"></use><g><use xlink:href="#b18zdINyyI" opacity="1" fill-opacity="0" stroke="#000000" stroke-width="1" stroke-opacity="0"></use></g></g><g><use xlink:href="#c3ltOYV98A" opacity="1" fill="#000000" fill-opacity="1"></use><g><use xlink:href="#c3ltOYV98A" opacity="1" fill-opacity="0" stroke="#000000" stroke-width="1" stroke-opacity="0"></use></g></g><g><use xlink:href="#l3X5EnbAjd" opacity="1" fill="#000000" fill-opacity="1"></use><g><use xlink:href="#l3X5EnbAjd" opacity="1" fill-opacity="0" stroke="#000000" stroke-width="1" stroke-opacity="0"></use></g></g><g><use xlink:href="#c3cha3VK2g" opacity="1" fill="#000000" fill-opacity="1"></use><g><use xlink:href="#c3cha3VK2g" opacity="1" fill-opacity="0" stroke="#000000" stroke-width="1" stroke-opacity="0"></use></g></g><g><use xlink:href="#b4ATFZgq9B" opacity="1" fill="#000000" fill-opacity="1"></use><g><use xlink:href="#b4ATFZgq9B" opacity="1" fill-opacity="0" stroke="#000000" stroke-width="1" stroke-opacity="0"></use></g></g><g><use xlink:href="#aapGQ41qV" opacity="1" fill="#000000" fill-opacity="1"></use><g><use xlink:href="#aapGQ41qV" opacity="1" fill-opacity="0" stroke="#000000" stroke-width="1" stroke-opacity="0"></use></g></g><g><use xlink:href="#a1XIF7qwv1" opacity="1" fill="#000000" fill-opacity="1"></use><g><use xlink:href="#a1XIF7qwv1" opacity="1" fill-opacity="0" stroke="#000000" stroke-width="1" stroke-opacity="0"></use></g></g><g><use xlink:href="#f7Qy2xTTi" opacity="1" fill="#000000" fill-opacity="1"></use><g><use xlink:href="#f7Qy2xTTi" opacity="1" fill-opacity="0" stroke="#000000" stroke-width="1" stroke-opacity="0"></use></g></g><g><use xlink:href="#fTMJm6R8T" opacity="1" fill="#000000" fill-opacity="1"></use><g><use xlink:href="#fTMJm6R8T" opacity="1" fill-opacity="0" stroke="#000000" stroke-width="1" stroke-opacity="0"></use></g></g><g><use xlink:href="#aRqJ5zLSJ" opacity="1" fill="#000000" fill-opacity="1"></use><g><use xlink:href="#aRqJ5zLSJ" opacity="1" fill-opacity="0" stroke="#000000" stroke-width="1" stroke-opacity="0"></use></g></g><g><use xlink:href="#afQdgmap" opacity="1" fill="#000000" fill-opacity="1"></use><g><use xlink:href="#afQdgmap" opacity="1" fill-opacity="0" stroke="#000000" stroke-width="1" stroke-opacity="0"></use></g></g></g></g></svg>